<?xml version="1.0" standalone="no"?>
<!DOCTYPE svg PUBLIC "-//W3C//DTD SVG 20010904//EN"
 "http://www.w3.org/TR/2001/REC-SVG-20010904/DTD/svg10.dtd">
<svg version="1.0" xmlns="http://www.w3.org/2000/svg"
 width="200.000000pt" height="200.000000pt" viewBox="0 0 200.000000 200.000000"
 preserveAspectRatio="xMidYMid meet">

<g transform="translate(0.000000,200.000000) scale(0.100000,-0.100000)"
fill="#000000" stroke="none">
<path d="M1639 1139 c-27 -27 -18 -54 32 -102 l39 -38 31 18 c33 19 69 70 69
96 0 9 -11 24 -25 33 -22 15 -27 15 -48 1 -20 -13 -26 -13 -42 -1 -25 18 -31
18 -56 -7z m93 -37 c3 -10 -3 -28 -12 -40 -17 -21 -18 -21 -23 -2 -3 10 2 28
10 39 17 26 19 26 25 3z"/>
</g>
</svg>
